<svg width="222" height="107" viewBox="0 0 222 107" fill="none" xmlns="http://www.w3.org/2000/svg">
<g clip-path="url(#clip0_148_442)">
<path d="M171.679 63.5119V106.604C171.679 106.674 171.654 106.741 171.609 106.795C171.564 106.848 171.501 106.884 171.432 106.895C170.979 106.976 170.537 106.994 170.107 106.949C164.097 106.3 158.871 102.352 157.071 96.5596C156.662 95.2406 156.458 93.2383 156.458 90.5526C156.452 64.9398 156.456 39.327 156.471 13.7143C156.471 7.9579 160.555 3.07438 165.857 1.47638C167.266 1.04965 169.452 0.837776 172.413 0.84076C179.59 0.846728 186.733 0.848221 193.841 0.845237C193.885 0.844645 193.93 0.853005 193.971 0.869836C194.012 0.886666 194.05 0.911631 194.081 0.94328C194.113 0.974929 194.138 1.01263 194.155 1.0542C194.172 1.09577 194.181 1.14038 194.181 1.18543V62.9524C194.181 63.0414 194.146 63.1268 194.083 63.1898C194.02 63.2527 193.934 63.2881 193.845 63.2881H171.903C171.753 63.2881 171.679 63.3627 171.679 63.5119Z" fill="#F0F0F5"/>
<path d="M196.98 1.13171C196.98 1.06244 197.007 0.995934 197.056 0.946534C197.105 0.897133 197.171 0.868792 197.24 0.867618C200.864 0.813904 204.508 0.819869 208.171 0.88552C215.905 1.01981 221.834 5.60343 221.834 13.7859C221.834 36.3728 221.834 58.9522 221.834 81.5241C221.834 81.5846 221.81 81.6427 221.767 81.6855C221.724 81.7283 221.666 81.7524 221.605 81.7524H197.2C197.138 81.7524 197.079 81.7283 197.035 81.6855C196.991 81.6427 196.967 81.5846 196.967 81.5241L196.98 1.13171Z" fill="#F0F0F5"/>
<path d="M125.245 13.2667H113.996C113.887 13.2667 113.799 13.3548 113.799 13.4636V50.9025C113.799 51.0112 113.887 51.0994 113.996 51.0994H125.245C125.354 51.0994 125.442 51.0112 125.442 50.9025V13.4636C125.442 13.3548 125.354 13.2667 125.245 13.2667Z" fill="#F0F0F5"/>
<path d="M15.6253 25.706C25.598 8.17723 51.5621 9.84237 58.5838 29.0721C62.4753 39.7165 58.1136 51.7977 48.0782 57.5183C34.0885 65.4859 17.2911 57.7913 13.2653 42.4022C13.2534 42.3515 13.2248 42.3062 13.1841 42.2737C13.1434 42.2411 13.093 42.2232 13.0409 42.2227C12.9888 42.2221 12.938 42.2391 12.8967 42.2708C12.8554 42.3026 12.8259 42.3472 12.813 42.3977C12.1905 44.5418 11.698 46.48 11.698 48.8031C11.695 54.1626 11.698 59.4968 11.7069 64.8055C11.7069 64.8779 11.6786 64.9474 11.6282 64.9986C11.5778 65.0498 11.5095 65.0786 11.4382 65.0786H0.319063C0.251366 65.0786 0.186442 65.0517 0.138573 65.0038C0.0907036 64.956 0.0638105 64.8911 0.0638105 64.8234C0.045898 59.3177 0.0414205 53.8478 0.0503767 48.4137C0.0593329 38.3289 6.0197 29.7346 15.3163 25.979C15.4506 25.9223 15.5536 25.8313 15.6253 25.706ZM48.5618 37.0755C48.5618 33.8405 47.2761 30.738 44.9877 28.4505C42.6992 26.163 39.5953 24.8779 36.3589 24.8779C33.1225 24.8779 30.0187 26.163 27.7302 28.4505C25.4417 30.738 24.1561 33.8405 24.1561 37.0755C24.1561 40.3105 25.4417 43.413 27.7302 45.7005C30.0187 47.988 33.1225 49.2731 36.3589 49.2731C39.5953 49.2731 42.6992 47.988 44.9877 45.7005C47.2761 43.413 48.5618 40.3105 48.5618 37.0755Z" fill="#F0F0F5"/>
<path d="M64.4137 64.6757C71.1279 57.5108 78.0421 50.5817 85.1563 43.8883C85.2638 43.7898 85.3698 43.6436 85.4743 43.4496C85.5161 43.372 85.5743 43.2959 85.6489 43.2213C85.7564 43.1139 85.8101 42.9841 85.8101 42.8319V29.0452C85.8101 28.9859 85.8337 28.929 85.8757 28.887C85.9177 28.845 85.9747 28.8214 86.034 28.8214H96.2218C96.3108 28.8214 96.3963 28.8568 96.4592 28.9198C96.5222 28.9827 96.5576 29.0681 96.5576 29.1571V48.3869C96.5576 48.4816 96.5207 48.573 96.4546 48.642L80.6513 64.5638C80.4995 64.7169 80.3191 64.8381 80.1207 64.9204C79.9223 65.0026 79.7099 65.0442 79.496 65.0428L64.5301 64.9532C64.2794 64.9503 64.2406 64.8577 64.4137 64.6757Z" fill="#F0F0F5"/>
<path d="M117.968 58.0554L115.196 55.3608C114.927 55.0952 114.942 54.8475 115.241 54.6177C118.029 52.4662 120.885 52.3886 123.807 54.385C124.279 54.7072 124.314 55.0713 123.91 55.4771L122.733 56.6499C122.628 56.7543 122.509 56.7782 122.374 56.7215L120.821 56.0456C120.775 56.0258 120.723 56.0225 120.675 56.0365C120.627 56.0504 120.586 56.0807 120.557 56.122C120.529 56.1634 120.517 56.2133 120.521 56.2631C120.526 56.3128 120.548 56.3594 120.583 56.3948L124.242 60.0026C124.268 60.029 124.289 60.0604 124.304 60.0948C124.318 60.1292 124.325 60.166 124.325 60.2031C124.325 60.2402 124.318 60.2767 124.304 60.3107C124.289 60.3447 124.268 60.3753 124.242 60.401L122.5 62.1422C122.446 62.1963 122.374 62.2281 122.297 62.2315C122.221 62.2348 122.146 62.2093 122.088 62.1601C120.413 60.7695 118.77 60.8053 117.157 62.2675C117.1 62.3196 117.024 62.3474 116.947 62.3449C116.869 62.3424 116.795 62.3098 116.741 62.2541L114.95 60.4636C114.83 60.3472 114.832 60.2309 114.954 60.1145C115.787 59.3088 116.76 58.7448 117.874 58.4225C117.911 58.412 117.944 58.392 117.971 58.3645C117.998 58.3371 118.017 58.3031 118.026 58.2659C118.036 58.2288 118.036 58.1898 118.025 58.1529C118.015 58.116 117.995 58.0824 117.968 58.0554Z" fill="#F0F0F5"/>
<path d="M193.841 66.3364H175.042C174.854 66.3364 174.701 66.4887 174.701 66.6766V106.371C174.701 106.559 174.854 106.712 175.042 106.712H193.841C194.029 106.712 194.181 106.559 194.181 106.371V66.6766C194.181 66.4887 194.029 66.3364 193.841 66.3364Z" fill="#F0F0F5"/>
<path d="M86.4328 103.574H78.1348C78.0921 103.574 78.0511 103.557 78.0208 103.527C77.9906 103.496 77.9736 103.455 77.9736 103.413V71.8421C77.9736 71.7993 77.9906 71.7584 78.0208 71.7281C78.0511 71.6979 78.0921 71.6809 78.1348 71.6809H86.2716C86.2955 71.6807 86.3191 71.6859 86.3408 71.6959C86.3625 71.706 86.3817 71.7208 86.397 71.7391L101.793 89.805C101.808 89.8222 101.826 89.8359 101.847 89.8453C101.868 89.8547 101.891 89.8596 101.914 89.8596C101.937 89.8596 101.959 89.8547 101.98 89.8453C102.001 89.8359 102.019 89.8222 102.035 89.805L117.511 71.7391C117.526 71.7208 117.545 71.706 117.567 71.6959C117.589 71.6859 117.612 71.6807 117.636 71.6809H125.392C125.435 71.6809 125.476 71.6979 125.506 71.7281C125.537 71.7584 125.554 71.7993 125.554 71.8421V103.413C125.554 103.455 125.537 103.496 125.506 103.527C125.476 103.557 125.435 103.574 125.392 103.574H117.193C117.15 103.574 117.109 103.557 117.079 103.527C117.049 103.496 117.032 103.455 117.032 103.413L117.077 85.575C117.077 85.5416 117.067 85.5088 117.048 85.4813C117.029 85.4539 117.001 85.433 116.97 85.4217C116.938 85.4104 116.904 85.4092 116.872 85.4182C116.84 85.4272 116.811 85.4461 116.79 85.4721L107.502 96.3671C107.487 96.3855 107.468 96.4003 107.446 96.4103C107.424 96.4204 107.401 96.4255 107.377 96.4253L96.4459 96.3806C96.4227 96.3801 96.3999 96.3747 96.3791 96.3646C96.3582 96.3546 96.3397 96.3402 96.325 96.3224L86.8761 85.2751C86.8544 85.2505 86.8257 85.2331 86.7939 85.2253C86.762 85.2174 86.7285 85.2195 86.6978 85.2311C86.6672 85.2428 86.6408 85.2636 86.6222 85.2906C86.6037 85.3177 86.5938 85.3498 86.594 85.3826V103.413C86.594 103.455 86.577 103.496 86.5468 103.527C86.5166 103.557 86.4755 103.574 86.4328 103.574Z" fill="#F0F0F5"/>
<path d="M31.684 71.9048H0.337215C0.183877 71.9048 0.0595703 72.029 0.0595703 72.1823V80.2394C0.0595703 80.3927 0.183877 80.5169 0.337215 80.5169H31.684C31.8374 80.5169 31.9617 80.3927 31.9617 80.2394V72.1823C31.9617 72.029 31.8374 71.9048 31.684 71.9048Z" fill="#F0F0F5"/>
<path d="M44.3706 94.9527L44.3975 103.722C44.3975 103.801 44.3659 103.877 44.3096 103.934C44.2533 103.99 44.177 104.021 44.0974 104.021H36.6862C36.104 104.021 35.8144 103.73 35.8174 103.149L35.8935 86.4345C35.8935 86.3539 35.9338 86.3151 36.0144 86.3181C44.9617 86.3629 53.603 86.33 61.9382 86.2196C62.9682 86.2047 63.7399 86.0003 64.2534 85.6064C65.6193 84.55 66.1925 81.9717 64.7371 80.6468C64.6415 80.5632 64.5311 80.5214 64.4057 80.5214H36.216C36.1269 80.5214 36.0415 80.4861 35.9785 80.4231C35.9155 80.3601 35.8801 80.2747 35.8801 80.1857V72.1509C35.8801 72.0047 35.9532 71.9316 36.0995 71.9316C44.4258 71.86 52.7402 71.8764 61.0426 71.9808C63.5563 72.0137 65.4103 72.2554 66.6044 72.706C69.3271 73.731 71.5483 75.7767 72.7708 78.4355C75.4084 84.1874 71.8886 89.9169 66.8328 92.9473C66.6836 93.0369 66.6656 93.1473 66.7791 93.2786L75.6861 103.699C75.7121 103.728 75.7291 103.764 75.7351 103.803C75.741 103.842 75.7355 103.881 75.7194 103.917C75.7033 103.952 75.6771 103.982 75.6442 104.003C75.6112 104.024 75.5729 104.035 75.5338 104.035L65.0908 104.017C64.9655 104.014 64.8639 103.966 64.7863 103.874L57.0974 94.9124C57.0498 94.8563 56.9903 94.8112 56.9231 94.7803C56.8558 94.7494 56.7823 94.7334 56.7078 94.7333H44.59C44.5318 94.7333 44.476 94.7564 44.4349 94.7976C44.3937 94.8387 44.3706 94.8945 44.3706 94.9527Z" fill="#F0F0F5"/>
<path d="M31.7776 83.7667H0.251724C0.142903 83.7667 0.0546875 83.8548 0.0546875 83.9636V92.0745C0.0546875 92.1832 0.142903 92.2714 0.251724 92.2714H31.7776C31.8865 92.2714 31.9747 92.1832 31.9747 92.0745V83.9636C31.9747 83.8548 31.8865 83.7667 31.7776 83.7667Z" fill="#F0F0F5"/>
<path d="M221.757 85.1409C221.807 85.142 221.855 85.1628 221.89 85.1988C221.926 85.2348 221.945 85.283 221.945 85.3333V94.0619C221.945 94.2857 221.833 94.3976 221.609 94.3976H197.544C197.495 94.3979 197.446 94.3878 197.4 94.3678C197.355 94.3477 197.315 94.3184 197.282 94.2815C197.249 94.2447 197.224 94.2013 197.209 94.1542C197.194 94.1071 197.189 94.0573 197.195 94.0082C197.669 89.9707 199.564 87.279 202.877 85.9331C204.003 85.4736 205.624 85.2214 207.741 85.1767C212.416 85.0782 217.088 85.0663 221.757 85.1409Z" fill="#F0F0F5"/>
<path d="M31.7105 95.5301H0.30994C0.168968 95.5301 0.0546875 95.6443 0.0546875 95.7852V103.878C0.0546875 104.019 0.168968 104.133 0.30994 104.133H31.7105C31.8514 104.133 31.9657 104.019 31.9657 103.878V95.7852C31.9657 95.6443 31.8514 95.5301 31.7105 95.5301Z" fill="#F0F0F5"/>
<path d="M209.75 97.5282L197.552 97.5069C197.366 97.5066 197.216 97.6566 197.215 97.842L197.2 106.356C197.2 106.541 197.35 106.692 197.536 106.692L209.734 106.713C209.919 106.714 210.07 106.564 210.07 106.378L210.085 97.8645C210.086 97.6791 209.936 97.5285 209.75 97.5282Z" fill="#F0F0F5"/>
</g>
<defs>
<clipPath id="clip0_148_442">
<rect width="222" height="107" fill="white"/>
</clipPath>
</defs>
</svg>
