<svg width="368" height="178" viewBox="0 0 368 178" fill="none" xmlns="http://www.w3.org/2000/svg">
<g clip-path="url(#clip0_1_344)">
<path d="M366.972 140.778C367.055 140.78 367.134 140.814 367.193 140.874C367.251 140.934 367.283 141.014 367.283 141.098V155.611C367.283 155.983 367.098 156.169 366.728 156.169H326.972C326.89 156.169 326.809 156.152 326.735 156.119C326.66 156.086 326.593 156.037 326.538 155.976C326.484 155.914 326.443 155.842 326.418 155.764C326.393 155.686 326.385 155.603 326.395 155.521C327.179 148.808 330.308 144.333 335.783 142.095C337.642 141.331 340.32 140.912 343.817 140.837C351.54 140.673 359.259 140.654 366.972 140.778Z" fill="#1C1C1C"/>
<path d="M347.137 161.374L326.985 161.338C326.679 161.338 326.43 161.587 326.429 161.896L326.405 176.051C326.404 176.359 326.652 176.61 326.959 176.61L347.11 176.646C347.417 176.646 347.666 176.397 347.666 176.089L347.691 161.933C347.691 161.625 347.443 161.374 347.137 161.374Z" fill="#1C1C1C"/>
<path d="M320.854 109.512H289.797C289.487 109.512 289.235 109.765 289.235 110.077V176.077C289.235 176.39 289.487 176.643 289.797 176.643H320.854C321.164 176.643 321.416 176.39 321.416 176.077V110.077C321.416 109.765 321.164 109.512 320.854 109.512Z" fill="#1C1C1C"/>
<path d="M284.241 104.815V176.464C284.241 176.58 284.2 176.693 284.126 176.781C284.051 176.87 283.948 176.929 283.835 176.948C283.085 177.082 282.355 177.112 281.645 177.037C271.717 175.958 263.083 169.394 260.11 159.763C259.434 157.57 259.096 154.241 259.096 149.775C259.086 107.189 259.094 64.6034 259.118 22.0174C259.118 12.4463 265.865 4.32654 274.624 1.66956C276.952 0.960044 280.562 0.607761 285.455 0.612723C297.311 0.622646 309.111 0.625128 320.854 0.620167C320.927 0.619182 321 0.633082 321.068 0.661067C321.136 0.689051 321.198 0.73056 321.251 0.783182C321.303 0.835804 321.345 0.898494 321.373 0.967609C321.401 1.03672 321.416 1.11089 321.416 1.1858V103.885C321.416 104.033 321.357 104.175 321.253 104.28C321.149 104.384 321.008 104.443 320.861 104.443H284.611C284.365 104.443 284.241 104.567 284.241 104.815Z" fill="#1C1C1C"/>
<path d="M326.04 1.09656C326.04 0.981379 326.085 0.870804 326.165 0.788666C326.245 0.706528 326.354 0.659407 326.469 0.657454C332.456 0.568144 338.476 0.578063 344.527 0.687219C357.303 0.910495 367.098 8.53163 367.098 22.1365C367.098 59.6914 367.098 97.2339 367.098 134.764C367.098 134.865 367.058 134.961 366.988 135.032C366.917 135.104 366.821 135.144 366.721 135.144H326.402C326.3 135.144 326.202 135.104 326.13 135.032C326.058 134.961 326.017 134.865 326.017 134.764L326.04 1.09656Z" fill="#1C1C1C"/>
<path d="M207.533 21.2732H188.949C188.769 21.2732 188.624 21.4198 188.624 21.6007V83.8498C188.624 84.0307 188.769 84.1773 188.949 84.1773H207.533C207.712 84.1773 207.858 84.0307 207.858 83.8498V21.6007C207.858 21.4198 207.712 21.2732 207.533 21.2732Z" fill="#1C1C1C"/>
<path d="M26.4396 41.9558C42.9147 12.811 85.8077 15.5796 97.4076 47.5526C103.836 65.2509 96.6309 85.3382 80.0522 94.8498C56.9411 108.097 29.1916 95.3038 22.5409 69.7164C22.5212 69.6321 22.474 69.5569 22.4068 69.5028C22.3396 69.4486 22.2563 69.4188 22.1702 69.4179C22.0841 69.417 22.0002 69.4453 21.932 69.498C21.8637 69.5508 21.815 69.6251 21.7937 69.709C20.7654 73.2739 19.9516 76.4965 19.9516 80.3592C19.9467 89.2704 19.9516 98.1394 19.9664 106.966C19.9664 107.087 19.9196 107.202 19.8364 107.287C19.7532 107.372 19.6403 107.42 19.5225 107.42H1.15354C1.0417 107.42 0.93445 107.375 0.85537 107.296C0.776289 107.216 0.731861 107.108 0.731861 106.996C0.70227 97.8416 0.694873 88.7469 0.709669 79.7117C0.724464 62.9437 10.5711 48.6541 25.9291 42.4098C26.1511 42.3156 26.3212 42.1642 26.4396 41.9558ZM80.8511 60.8598C80.8511 55.481 78.7272 50.3225 74.9466 46.5191C71.166 42.7157 66.0384 40.579 60.6919 40.579C55.3453 40.579 50.2177 42.7157 46.4371 46.5191C42.6565 50.3225 40.5326 55.481 40.5326 60.8598C40.5326 66.2386 42.6565 71.3971 46.4371 75.2005C50.2177 79.0039 55.3453 81.1407 60.6919 81.1407C66.0384 81.1407 71.166 79.0039 74.9466 75.2005C78.7272 71.3971 80.8511 66.2386 80.8511 60.8598Z" fill="#1C1C1C"/>
<path d="M107.04 106.75C118.132 94.8374 129.554 83.3164 141.307 72.1874C141.484 72.0236 141.659 71.7805 141.832 71.458C141.901 71.329 141.997 71.2025 142.12 71.0784C142.298 70.8998 142.387 70.684 142.387 70.4309V47.508C142.387 47.4093 142.426 47.3146 142.495 47.2449C142.565 47.1751 142.659 47.1359 142.757 47.1359H159.587C159.734 47.1359 159.875 47.1947 159.979 47.2994C160.083 47.404 160.142 47.546 160.142 47.6941V79.6671C160.142 79.8246 160.081 79.9766 159.972 80.0913L133.864 106.564C133.614 106.819 133.316 107.02 132.988 107.157C132.66 107.294 132.309 107.363 131.956 107.361L107.232 107.212C106.818 107.207 106.754 107.053 107.04 106.75Z" fill="#1C1C1C"/>
<path d="M195.511 95.7429L190.932 91.2625C190.488 90.8209 190.513 90.4091 191.006 90.0271C195.612 86.4497 200.33 86.3207 205.158 89.64C205.937 90.1759 205.994 90.7812 205.328 91.456L203.382 93.4059C203.21 93.5796 203.013 93.6193 202.791 93.525L200.224 92.4012C200.148 92.3682 200.063 92.3628 199.983 92.386C199.904 92.4092 199.835 92.4595 199.789 92.5283C199.742 92.597 199.721 92.68 199.729 92.7627C199.737 92.8455 199.773 92.923 199.831 92.9817L205.876 98.9804C205.919 99.0244 205.954 99.0765 205.977 99.1337C206.001 99.191 206.013 99.2522 206.013 99.3138C206.013 99.3754 206.001 99.4362 205.977 99.4927C205.954 99.5492 205.919 99.6002 205.876 99.6428L202.998 102.538C202.909 102.628 202.789 102.681 202.663 102.686C202.537 102.692 202.414 102.649 202.317 102.568C199.55 100.256 196.835 100.315 194.172 102.746C194.077 102.833 193.952 102.879 193.824 102.875C193.695 102.871 193.574 102.817 193.484 102.724L190.525 99.747C190.328 99.5535 190.33 99.36 190.532 99.1665C191.908 97.8268 193.516 96.889 195.356 96.3532C195.417 96.3357 195.472 96.3025 195.516 96.2568C195.56 96.2112 195.592 96.1547 195.608 96.0929C195.623 96.0312 195.623 95.9664 195.606 95.905C195.589 95.8435 195.556 95.7877 195.511 95.7429Z" fill="#1C1C1C"/>
<path d="M143.415 171.426H129.707C129.636 171.426 129.568 171.398 129.518 171.347C129.468 171.297 129.44 171.229 129.44 171.158V118.666C129.44 118.595 129.468 118.527 129.518 118.476C129.568 118.426 129.636 118.398 129.707 118.398H143.149C143.188 118.398 143.227 118.406 143.263 118.423C143.299 118.44 143.331 118.464 143.356 118.495L168.79 148.533C168.815 148.561 168.846 148.584 168.88 148.6C168.914 148.615 168.952 148.623 168.99 148.623C169.027 148.623 169.065 148.615 169.099 148.6C169.134 148.584 169.164 148.561 169.189 148.533L194.757 118.495C194.782 118.464 194.813 118.44 194.849 118.423C194.885 118.406 194.924 118.398 194.964 118.398H207.777C207.847 118.398 207.915 118.426 207.965 118.476C208.015 118.527 208.043 118.595 208.043 118.666V171.158C208.043 171.229 208.015 171.297 207.965 171.347C207.915 171.398 207.847 171.426 207.777 171.426H194.231C194.161 171.426 194.093 171.398 194.043 171.347C193.993 171.297 193.965 171.229 193.965 171.158L194.039 141.5C194.039 141.444 194.023 141.389 193.991 141.344C193.96 141.298 193.915 141.263 193.863 141.245C193.811 141.226 193.754 141.224 193.701 141.239C193.647 141.254 193.6 141.285 193.565 141.328L178.222 159.443C178.197 159.474 178.165 159.498 178.129 159.515C178.094 159.532 178.055 159.54 178.015 159.54L159.957 159.466C159.919 159.465 159.881 159.456 159.846 159.439C159.812 159.423 159.781 159.399 159.757 159.369L144.147 141.001C144.112 140.96 144.064 140.931 144.012 140.918C143.959 140.905 143.904 140.908 143.853 140.928C143.802 140.947 143.759 140.982 143.728 141.027C143.697 141.072 143.681 141.125 143.681 141.179V171.158C143.681 171.229 143.653 171.297 143.603 171.347C143.553 171.398 143.486 171.426 143.415 171.426Z" fill="#1C1C1C"/>
<path d="M52.9683 118.77H1.18304C0.929721 118.77 0.724365 118.977 0.724365 119.231V132.628C0.724365 132.883 0.929721 133.089 1.18304 133.089H52.9683C53.2217 133.089 53.427 132.883 53.427 132.628V119.231C53.427 118.977 53.2217 118.77 52.9683 118.77Z" fill="#1C1C1C"/>
<path d="M73.9267 157.092L73.971 171.671C73.971 171.804 73.9188 171.931 73.8259 172.024C73.7329 172.118 73.6068 172.17 73.4754 172.17H61.2319C60.2701 172.17 59.7917 171.686 59.7967 170.719L59.9224 142.928C59.9224 142.794 59.989 142.73 60.1222 142.735C74.9032 142.809 89.1787 142.755 102.949 142.571C104.65 142.546 105.925 142.207 106.773 141.552C109.03 139.795 109.977 135.508 107.572 133.305C107.414 133.166 107.232 133.097 107.025 133.097H60.4551C60.3079 133.097 60.1668 133.038 60.0627 132.933C59.9587 132.829 59.9002 132.687 59.9002 132.539V119.179C59.9002 118.936 60.0211 118.815 60.2627 118.815C74.0179 118.696 87.7533 118.723 101.469 118.897C105.622 118.951 108.684 119.353 110.657 120.102C115.155 121.807 118.825 125.208 120.844 129.629C125.202 139.192 119.387 148.719 111.035 153.757C110.788 153.906 110.758 154.09 110.946 154.308L125.66 171.634C125.703 171.683 125.731 171.743 125.741 171.807C125.751 171.871 125.742 171.937 125.715 171.996C125.689 172.055 125.645 172.105 125.591 172.14C125.537 172.175 125.473 172.193 125.409 172.192L108.157 172.163C107.95 172.158 107.782 172.078 107.654 171.924L94.9515 157.025C94.8729 156.931 94.7746 156.856 94.6635 156.805C94.5524 156.754 94.431 156.727 94.3079 156.727H74.2892C74.193 156.727 74.1008 156.765 74.0328 156.834C73.9648 156.902 73.9267 156.995 73.9267 157.092Z" fill="#1C1C1C"/>
<path d="M53.1238 138.493H1.04255C0.862775 138.493 0.717041 138.639 0.717041 138.82V152.306C0.717041 152.487 0.862775 152.633 1.04255 152.633H53.1238C53.3035 152.633 53.4493 152.487 53.4493 152.306V138.82C53.4493 138.639 53.3035 138.493 53.1238 138.493Z" fill="#1C1C1C"/>
<path d="M53.0128 158.052H1.13872C0.905834 158.052 0.717041 158.242 0.717041 158.476V171.932C0.717041 172.166 0.905834 172.356 1.13872 172.356H53.0128C53.2457 172.356 53.4345 172.166 53.4345 171.932V158.476C53.4345 158.242 53.2457 158.052 53.0128 158.052Z" fill="#1C1C1C"/>
</g>
<defs>
<clipPath id="clip0_1_344">
<rect width="368" height="178" fill="white"/>
</clipPath>
</defs>
</svg>
