<svg width="162" height="500" viewBox="0 0 162 500" fill="none" xmlns="http://www.w3.org/2000/svg">
<path d="M141.237 76.2889C139.103 117.145 135.987 176.769 161.421 259.538C104.741 304.391 113.103 364.644 121.38 413.45C121.64 414.986 121.901 416.51 122.159 418.021C123.958 428.555 125.656 438.495 126.578 447.584C127.632 457.979 127.664 467.21 125.692 474.897C123.725 482.564 119.767 488.69 112.82 492.913C105.889 497.127 95.9329 499.476 81.9007 499.5C60.6835 477.514 35.1784 460.104 8.8748 444.223C-1.53856 437.936 -12.0673 431.895 -22.5063 425.904C-38.5246 416.712 -54.3314 407.642 -69.1852 397.993C-93.6995 382.07 -115.525 364.627 -131.223 342.607C-146.867 320.664 -156.442 294.155 -156.5 260.028C-76.2268 219.94 -44.9181 155.45 -19.5404 101.075C-19.0192 99.9579 -18.5006 98.8455 -17.9841 97.7378C-5.9026 71.8264 4.99203 48.4604 19.4699 31.3429C34.5355 13.5304 53.4706 2.5 81.6884 2.5C110.069 2.5 125.415 6.76621 133.542 15.9303C137.603 20.5092 139.902 26.3545 141.094 33.6186C142.287 40.8889 142.366 49.5464 142.013 59.7221C141.834 64.8603 141.546 70.3782 141.237 76.2889Z" stroke="#F0F0F5"/>
<path d="M95.2372 74.2889C93.1025 115.145 89.9872 174.769 115.421 257.538C58.7415 302.391 67.1025 362.644 75.3799 411.45C75.6403 412.986 75.9006 414.51 76.1588 416.021C77.9582 426.555 79.6559 436.495 80.5775 445.584C81.6316 455.979 81.6638 465.21 79.692 472.897C77.7253 480.564 73.7673 486.69 66.8202 490.913C59.8887 495.127 49.9329 497.476 35.9007 497.5C14.6835 475.514 -10.8216 458.104 -37.1252 442.223C-47.5386 435.936 -58.0673 429.895 -68.5063 423.904C-84.5246 414.712 -100.331 405.642 -115.185 395.993C-139.7 380.07 -161.525 362.627 -177.223 340.607C-192.867 318.664 -202.442 292.155 -202.5 258.028C-122.227 217.94 -90.9181 153.45 -65.5404 99.0746C-65.0192 97.9579 -64.5006 96.8455 -63.9841 95.7378C-51.9026 69.8264 -41.008 46.4604 -26.5301 29.3429C-11.4645 11.5304 7.47057 0.5 35.6884 0.5C64.0685 0.5 79.4146 4.76621 87.5421 13.9303C91.6031 18.5092 93.9018 24.3545 95.0938 31.6186C96.2867 38.8889 96.3659 47.5464 96.0127 57.7221C95.8343 62.8603 95.546 68.3782 95.2372 74.2889Z" stroke="#F0F0F5"/>
<path d="M47.2372 74.2889C45.1025 115.145 41.9872 174.769 67.4214 257.538C10.7415 302.391 19.1025 362.644 27.3799 411.45C27.6403 412.986 27.9006 414.51 28.1588 416.021C29.9582 426.555 31.6559 436.495 32.5775 445.584C33.6316 455.979 33.6638 465.21 31.692 472.897C29.7253 480.564 25.7673 486.69 18.8202 490.913C11.8887 495.127 1.93288 497.476 -12.0993 497.5C-33.3165 475.514 -58.8216 458.104 -85.1252 442.223C-95.5386 435.936 -106.067 429.895 -116.506 423.904C-132.525 414.712 -148.331 405.642 -163.185 395.993C-187.7 380.07 -209.525 362.627 -225.223 340.607C-240.867 318.664 -250.442 292.155 -250.5 258.028C-170.227 217.94 -138.918 153.45 -113.54 99.0746C-113.019 97.9579 -112.501 96.8455 -111.984 95.7378C-99.9026 69.8264 -89.008 46.4604 -74.5301 29.3429C-59.4645 11.5304 -40.5294 0.5 -12.3116 0.5C16.0685 0.5 31.4146 4.76621 39.5421 13.9303C43.6031 18.5092 45.9018 24.3545 47.0938 31.6186C48.2867 38.8889 48.3659 47.5464 48.0127 57.7221C47.8343 62.8603 47.546 68.3782 47.2372 74.2889Z" stroke="#F0F0F5"/>
</svg>
