<svg width="162" height="498" viewBox="0 0 162 498" fill="none" xmlns="http://www.w3.org/2000/svg">
<path d="M141.237 74.2889C139.103 115.145 135.987 174.769 161.421 257.538C104.741 302.391 113.103 362.644 121.38 411.45C121.64 412.986 121.901 414.51 122.159 416.021C123.958 426.555 125.656 436.495 126.578 445.584C127.632 455.979 127.664 465.21 125.692 472.897C123.725 480.564 119.767 486.69 112.82 490.913C105.889 495.127 95.9329 497.476 81.9007 497.5C60.6835 475.514 35.1784 458.104 8.8748 442.223C-1.53856 435.936 -12.0673 429.895 -22.5063 423.904C-38.5246 414.712 -54.3314 405.642 -69.1852 395.993C-93.6995 380.07 -115.525 362.627 -131.223 340.607C-146.867 318.664 -156.442 292.155 -156.5 258.028C-76.2268 217.94 -44.9181 153.45 -19.5404 99.0746C-19.0192 97.9579 -18.5006 96.8455 -17.9841 95.7378C-5.9026 69.8264 4.99203 46.4604 19.4699 29.3429C34.5355 11.5304 53.4706 0.5 81.6884 0.5C110.069 0.5 125.415 4.76621 133.542 13.9303C137.603 18.5092 139.902 24.3545 141.094 31.6186C142.287 38.8889 142.366 47.5464 142.013 57.7221C141.834 62.8603 141.546 68.3782 141.237 74.2889Z" stroke="#F0F0F5"/>
</svg>
