<svg width="158" height="498" viewBox="0 0 158 498" fill="none" xmlns="http://www.w3.org/2000/svg">
<path d="M298.237 74.2889C296.103 115.145 292.987 174.769 318.421 257.538C261.741 302.391 270.103 362.644 278.38 411.45C278.64 412.986 278.901 414.51 279.159 416.021C280.958 426.555 282.656 436.495 283.578 445.584C284.632 455.979 284.664 465.21 282.692 472.897C280.725 480.564 276.767 486.69 269.82 490.913C262.889 495.127 252.933 497.476 238.901 497.5C217.684 475.514 192.178 458.104 165.875 442.223C155.461 435.936 144.933 429.895 134.494 423.904C118.475 414.712 102.669 405.642 87.8148 395.993C63.3005 380.07 41.4751 362.627 25.7765 340.607C10.1331 318.664 0.55775 292.155 0.50026 258.028C80.7732 217.94 112.082 153.45 137.46 99.0746C137.981 97.9579 138.499 96.8455 139.016 95.7378C151.097 69.8264 161.992 46.4604 176.47 29.3429C191.536 11.5304 210.471 0.5 238.688 0.5C267.069 0.5 282.415 4.76621 290.542 13.9303C294.603 18.5092 296.902 24.3545 298.094 31.6186C299.287 38.8889 299.366 47.5464 299.013 57.7221C298.834 62.8603 298.546 68.3782 298.237 74.2889Z" stroke="#F0F0F5"/>
</svg>
